# xmcd
#
# Track frame offsets: 
#        150
#        11942
#        28892
#        39891
#        57632
#        78722
#        86732
#        102602
#        120517
#        144912
#
# Disc length: 2505 seconds
#
# Revision: 0
# Processed by: cddbd v1.5.2PL0 Copyright (c) Steve Scherf et al.
# Submitted via: ExactAudioCopy v0.95b3
#
DISCID=8809c70a
DTITLE=The Epstein - The Last Of The Charangistas
DYEAR=2007
DGENRE=Alternative
TTITLE0=Black Dog
TTITLE1=Charanga Classica
TTITLE2=Thunder River
TTITLE3=The Dress She Wore
TTITLE4=Dance The Night Away
TTITLE5=6 - 06 Pm
TTITLE6=Leave Your Light On
TTITLE7=I'll Be Gone
TTITLE8=Just The Wind
TTITLE9=N Y C Blues
EXTD=
EXTT0=
EXTT1=
EXTT2=
EXTT3=
EXTT4=
EXTT5=
EXTT6=
EXTT7=
EXTT8=
EXTT9=
PLAYORDER=
